<svg width="20" height="20" viewBox="0 0 20 20" fill="none" xmlns="http://www.w3.org/2000/svg">
<path d="M19.91 15.9415L19.8105 15.6415C19.5747 14.9408 18.8019 14.2099 18.0919 14.0173L15.4644 13.2995C14.7518 13.1057 13.7354 13.3663 13.214 13.8876L12.2631 14.8386C8.80706 13.9047 6.09701 11.1946 5.1644 7.73925L6.11541 6.78824C6.63674 6.2669 6.89737 5.2518 6.70352 4.53925L5.98702 1.91038C5.79316 1.19912 5.06095 0.426335 4.36152 0.193162L4.06157 0.0923143C3.36079 -0.140859 2.36137 0.0949549 1.84008 0.616252L0.417564 2.04006C0.163434 2.29285 0.00101309 3.01589 0.00101309 3.01853C-0.04874 7.53487 1.72217 11.8862 4.91685 15.0809C8.10369 18.2677 12.4387 20.036 16.9419 19.998C16.9654 19.998 17.7094 19.8382 17.9636 19.5854L19.3861 18.1629C19.9074 17.6416 20.1431 16.6422 19.91 15.9415Z" fill="#3B3B3B"/>
</svg>
